<?xml version="1.0" encoding="UTF-8"?>
<svg id="Layer_2" xmlns="http://www.w3.org/2000/svg" viewBox="0 0 618.3 728.01">
  <defs>
    <style>
      .cls-1 {
        fill: #6f6f6f;
      }

      .cls-2 {
        fill: #7b7b7b;
      }

      .cls-3 {
        fill: #777;
      }

      .cls-4 {
        fill: #3f3f3f;
      }

      .cls-5 {
        fill: #7e7e7e;
      }

      .cls-6 {
        fill: #5e5e5e;
      }

      .cls-7 {
        fill: #5b5b5b;
      }

      .cls-8 {
        fill: #363636;
      }

      .cls-9 {
        fill: #454545;
      }

      .cls-10 {
        fill: #656565;
      }

      .cls-11 {
        fill: #686868;
      }

      .cls-12 {
        fill: #595959;
      }

      .cls-13 {
        fill: #515151;
      }

      .cls-14 {
        fill: #4b4b4b;
      }
    </style>
  </defs>
  <g id="Layer_1-2" data-name="Layer_1">
    <g>
      <path class="cls-1" d="M47.3,57.29c-1.94-4.92-3.87-9.84-5.81-14.76,2.24-1.03,3.27-3.16,3.91-5.21,5.43-17.41,17.92-27.59,34.29-33.8,1.82-.69,2.79-1.64,2.94-3.51h50.53c.18,3.96,3.77,3.76,6.11,4.53,5.83,1.9,11.22,4.94,16.95,6.79,9.21,2.96,13.59,12.16,22.15,15.63,0,4.49,0,8.99,0,13.48-2.84-.12-3.26-2.66-4.55-4.41-4.27-5.83-7.98-12-14.32-16.2-23.6-15.63-49.13-16.92-75.39-9.72-20.66,5.67-31.11,20.58-33.47,41.49-.28,2.49.29,5.28-3.36,5.7Z"/>
      <path class="cls-6" d="M616.3,584.77c-.53,4.58-.8,9.21-2.78,13.48-1.82.16-3.12.8-3.57,2.85-3.89,17.62-12.61,32.93-24.07,46.46-12.55,14.81-27.2,26.89-48.29,26.47-8.22-.17-13.26-4.99-13.57-12.98-.58-15.15,2.85-29.75,6.67-44.27,2.74,2.62,1.2,5.55.9,8.57-1.05,10.41-4.23,20.7-1.01,31.38,1.45,4.83,3.72,8.37,8.68,8.78,8.69.71,16.99-.05,24.83-5.18,27.43-17.94,40.07-44.45,46.02-75.53,1.72-9.01-.59-18.34,3.14-27,3.58,5.05,1.45,11.81,5.05,16.86v3.37c-3.7,1.35-8.46,2.39-1.99,6.75Z"/>
      <path class="cls-9" d="M192.12,0h69.06c.07,3.4-2.71,4.36-4.88,6.02-6.26,4.8-12.78,9.44-15.33,17.51-11.18-2.54-22.19-5.86-33.67-6.94-.81-4.72-4.78-6.49-8.08-9.07-2.69-2.1-7.12-2.81-7.1-7.53Z"/>
      <path class="cls-10" d="M618.3,574.64c-3.6-5.04-1.47-11.81-5.05-16.86,0-1.12,0-2.24,0-3.37-.02-15.18-5.34-29.02-11.3-42.56-4.61-10.46-10.65-20.19-19.01-28.22h0c-.41-4.28-3.61-6.33-6.74-8.43-.64-1.6-1.77-2.73-3.37-3.37-.78-6.81-9.2-8.39-10.26-15.01l.48-.51c27.12,22.97,48.9,49.29,53.85,86.15.09.66.92,1.22,1.41,1.83v30.33Z"/>
      <path class="cls-7" d="M310.04,0c.99,2.43,3.42,1.11,5.03,1.93-.61,4.27-4.19,2.81-6.64,3.36-22.02,4.94-30.2,14.87-30.45,37.05-4.56-2.84-9.12-5.68-13.67-8.52.59-.88,1.66-1.74,1.71-2.65.61-12.1,8.03-19.4,17.47-25.41,2.41-1.53,6.09-1.79,6.34-5.75h20.21Z"/>
      <path class="cls-11" d="M178.38,26.95c-8.56-3.47-12.94-12.67-22.15-15.63-5.73-1.84-11.13-4.88-16.95-6.79-2.34-.77-5.93-.57-6.11-4.53h26.95c-.04,3.48,2.63,4.53,5.08,5.97,5.03,2.95,10.44,5.5,13.47,10.94-.1,3.34-.19,6.69-.29,10.03Z"/>
      <path class="cls-13" d="M289.82,0c-.25,3.96-3.93,4.22-6.34,5.75-9.44,6.01-16.87,13.31-17.47,25.41-.05.91-1.12,1.77-1.71,2.65-3.54-1.19-6.96-2.62-9.9-5.01,2.09-10.24,6.79-18.66,16.22-23.98,1.83-1.03,4.11-2.05,4.03-4.83h15.16Z"/>
      <path class="cls-14" d="M274.66,0c.07,2.78-2.2,3.8-4.03,4.83-9.43,5.31-14.14,13.74-16.22,23.98-4.48-1.76-8.96-3.52-13.43-5.28,2.56-8.07,9.08-12.71,15.33-17.51,2.17-1.67,4.95-2.62,4.88-6.02h13.48Z"/>
      <path class="cls-10" d="M82.63,0c-.15,1.87-1.12,2.82-2.94,3.51-16.37,6.22-28.86,16.39-34.29,33.8-.64,2.05-1.67,4.18-3.91,5.21-1.29-2.39-2.58-4.79-3.87-7.18,2.38-.19,3.39-2.01,3.9-3.86,2.49-9.06,8.96-15.19,15.15-21.66,3.39-3.54,9.34-4.22,10.79-9.82h15.16Z"/>
      <path class="cls-7" d="M67.47,0c-1.45,5.6-7.4,6.27-10.79,9.82-6.2,6.47-12.67,12.61-15.15,21.66-.51,1.86-1.52,3.67-3.9,3.86-1.34-2.1-2.68-4.19-4.01-6.29,1.21-2.14,2.68-4.19,3.6-6.45,3.66-9,11.62-14.76,16.79-22.61h13.48Z"/>
      <path class="cls-8" d="M20.15,15.23c-5.48-3.22-10.84-6.7-16.51-9.56C.97,4.33-.37,2.93.09,0h30.32c-1.19,6.58-4.2,11.94-10.26,15.23Z"/>
      <path class="cls-9" d="M20.15,15.23c6.06-3.3,9.08-8.65,10.26-15.23h15.16c-.07,3.88-3.35,5.58-5.51,8.02-4.42,4.99-8.62,10.09-9.6,17.02-3.44-3.27-6.88-6.53-10.31-9.8Z"/>
      <path class="cls-13" d="M192.12,0c-.02,4.72,4.41,5.43,7.1,7.53,3.29,2.58,7.27,4.34,8.08,9.07-5.66.39-11.33.9-16.82-1.2-.16-3.8-3.19-5.2-5.6-7.41-3.09-2.83-8.62-2.73-9.61-7.98h16.84Z"/>
      <path class="cls-12" d="M175.28,0c.99,5.25,6.52,5.16,9.61,7.98,2.41,2.21,5.44,3.61,5.6,7.41-3.94.51-7.88,1.01-11.82,1.52-3.03-5.44-8.44-7.99-13.47-10.94-2.45-1.44-5.12-2.49-5.08-5.97h15.16Z"/>
      <path class="cls-13" d="M30.46,25.04c.98-6.93,5.18-12.02,9.6-17.02,2.16-2.44,5.44-4.13,5.51-8.02h8.42c-5.17,7.85-13.13,13.61-16.79,22.61-.92,2.26-2.38,4.31-3.6,6.45-1.05-1.34-2.1-2.68-3.15-4.02Z"/>
      <path class="cls-10" d="M616.3,584.77c-6.47-4.36-1.71-5.4,1.99-6.75v3.37c-1.85.43-1.47,2.17-1.99,3.38Z"/>
      <path class="cls-2" d="M50.88,508.94c3.93-24.77,3.17-49.74,3.16-74.67-.01-107.45-.02-214.89-.13-322.34,0-8.67-.82-17.33-1.26-26,4.58-1.13,3.51-5.17,2.83-7.58-2.05-7.3-.16-14.39.29-21.5.94-14.66,6.76-26.69,19.21-35.5,13.28-9.4,28.15-10.59,43.36-9.43,33.29,2.53,54.82,20.81,55.23,55.07.56,47.32-2.24,94.58-2.98,141.86-1.02,65.02-1.4,130.08,1.17,195.12.78,19.84,3,39.65,1.87,59.56-.06,1.11.17,2.23.27,3.35,2.14,22.04,3.53,44.13-2.15,65.82-2.85,10.88-8.14,20.55-17.79,27.54-18.65,13.5-39.23,15.22-60.68,10.24-13.71-3.18-25.4-10.15-32.25-23.28-4.87-9.34-6.9-19.34-7.13-29.83-.07-2.96,1.97-7.07-3.02-8.42ZM165.17,274.3c-.29-35.17,1.34-76.57,3.12-117.99,1.26-29.43.83-58.98,0-88.45-.42-15.11-5.97-28.74-18.47-38.82-14.4-11.61-31.23-14.15-48.39-11.69-27.25,3.91-40.42,21.01-40.78,48.8-.33,24.94,3.07,49.72,3.22,74.56.58,95.48.23,190.97.23,286.46,0,2.53.08,5.06-.08,7.58-1.63,25.62-3.74,51.23-4.85,76.87-1.21,27.92,13.59,51.46,45.28,55.18,36.11,4.24,65.4-16.31,65.75-54.33.32-35.56-1.32-71.06-3.11-106.58-1.29-25.72-.04-51.53-1.72-77.3-1.04-15.94-.19-32-.19-54.3Z"/>
      <path class="cls-10" d="M530.7,616.77c-3.82,14.52-7.26,29.12-6.67,44.27.31,8,5.35,12.82,13.57,12.98,21.09.43,35.74-11.65,48.29-26.47,11.46-13.52,20.17-28.84,24.07-46.46.45-2.05,1.75-2.69,3.57-2.85-5.63,30.96-21.23,56.31-44.05,77.4-10.51,9.72-21.95,18.3-35.11,24.29-4.48-4.38-10.04-1.86-15.08-2.2-13.17-.87-20.45-9.61-17.9-22.24.52-2.56,1.31-4.93-1.47-6.65,11.58-16.05,18.25-33.69,17.34-53.77,2.43-.23,3.1-1.73,3.38-3.98,1.31-10.7,2.65-21.24,1.93-32.22-1.79-27.45-13.12-50.36-32.4-68.95-33.17-32-72.36-53.52-118.12-61.13-12.24-2.04-24.83-6.59-37.31-3.52-10.55,2.59-20.98,3.05-31.61,2.96-3.16-.02-6.42-.24-6.76,4.23-12.68-8.05-24.15-17.64-35.18-27.78.54-5.17-1.16-9.84-3.02-14.54-3.05-7.72-5.68-15.54-7.21-23.78-2.38-12.83-4-25.8-6.17-38.58-2.41-14.21-.42-27.46,1.24-41.1,3.11-8.37,1.88-17.52,4.78-26.01,1.39-4.07,2-9.24,6.28-10.12,4.78-.98,6,4.84,8.81,7.71,3.45,3.52,2.8,10.07,8.78,11.57.56,1.68,1.13,3.37,1.69,5.05.05,2.19,1.17,3.32,3.36,3.38,1.38,3.95,4,7.07,6.74,10.11-.16,2.89.3,5.47,3.38,6.74,23.18,21.57,49.07,38.12,80.85,43.82.34,2.14.7,4.23,3.37,1.68,1.12,0,2.24,0,3.37,0,2.37,5.36,7.69,3.78,11.81,5.04,1.68,0,3.36,0,5.04,0,1.21,1.99,3.21,1.64,5.06,1.68,1.12,0,2.24,0,3.36,0,5.09,1.59,10,6.19,15.48.89,12.75,6.31,25.23,13.11,37.2,20.8-3.14.53-6.09-.13-9.03-1.26-23.57-8.99-48.34-13.72-72.56-20.45-25.5-7.08-49.87-16.42-71.08-32.94-12.5-9.74-21.99-22.26-32.97-33.41-7.39-7.5-12.56-6.29-15.4,4.02-4.24,15.41-5.45,30.96-3.53,47.11,2.63,22.16,7.35,43.45,17.57,63.38,6.53,12.73,16.03,20.77,30.85,23.07,10.13,1.57,20.12,1.18,30.14,1.14,20.19-.09,40.41.81,59.78,6.24,42.53,11.92,80.4,32.53,110.78,65.19,19.18,20.61,31,44.69,30.78,73.61.05,1.85-.3,3.84,1.67,5.06,0,2.81,0,5.61,0,8.42-2.8,2.36-1.28,5.59-1.68,8.43,0,3.37,0,6.74,0,10.11Z"/>
      <path class="cls-1" d="M214.02,665.97c-8.25.67-15.86,2.8-21.37,9.59-4.88-10.92-.16-20.58,5.22-29.26,12.79-20.65,28.53-39.21,43.92-57.94,7.84-9.54,17.89-9.28,26.83-.36,12.06,12.04,21.15,26.88,34.49,37.64,6.95,5.6,12.42,13.86,22.61,14.52,7.26,9.24,14.01,18.95,21.88,27.65,20.96,23.17,45.73,38.73,78.59,36.48,18.18-1.24,35.05-6.86,50.89-15.74,3.22,1.37,3.14,4.23,3.08,7.01-.15,6.21,3.08,10.5,7.99,13.58,3.49,2.19,7.34,3.8,11.04,5.66-33.52,11.87-68.13,14.86-103.36,12.44-20.99-1.45-41.66-4.93-61.84-11.01-1.3-.39-2.48-1.14-3.72-1.73.56-4.24,3.88-3.13,6.51-3.35,8.85-.74,15.57-5.23,19.14-13.08,3.02-6.61-2.69-11.46-5.71-16.51-5.71-9.57-15.25-15.38-23.32-22.62-12.06-10.81-24.86-20.88-36.15-32.44-7.4-7.58-14.01-15.88-22.63-22.25-7.72-5.71-15.64-6.86-23.02-.61-19.13,16.21-33.62,35.13-31.06,62.34Z"/>
      <path class="cls-2" d="M188.8,635.31c1.68-9.87,4.54-19.39,8.31-28.65,3.2-.3,6.14-1.53,8.08-3.96,11.85-14.88,21.62-30.93,27.52-49.21,7.3-22.62,4.23-45.9,4.89-68.95.08-2.79-.92-4.89-3.6-6.01,1.71-6.48,3.37-12.98,5.16-19.44,1.06-3.83.75-8.52,7.01-8.61,6.48-.09,5.81,4.87,6.87,8.59,11.37,39.84,23.21,79.52,40.15,117.46.39,2.32,1.3,4.27,3.68,5.17-1.2,3.04.75,5.39,1.89,7.8,4.85,10.24,9.86,20.4,14.82,30.59-10.78-1.83-15.75-11.06-21.65-18.32-8.4-10.32-14.78-22.26-22.86-32.87-7.49-9.85-11.89-14.79-22.75-2.11-2.17,2.53-4.38,5.06-6.26,7.8-10.88,15.83-21.91,31.59-34.51,46.08-4.8,5.52-9.1,12.14-16.74,14.63Z"/>
      <path class="cls-3" d="M50.88,508.94c4.99,1.34,2.96,5.46,3.02,8.42.23,10.49,2.26,20.49,7.13,29.83,6.85,13.14,18.54,20.1,32.25,23.28,21.45,4.98,42.03,3.26,60.68-10.24,9.65-6.99,14.94-16.66,17.79-27.54,5.68-21.69,4.29-43.78,2.15-65.82-.11-1.12-.34-2.24-.27-3.35,1.13-19.91-1.08-39.72-1.87-59.56-2.57-65.03-2.19-130.1-1.17-195.12.74-47.28,3.55-94.54,2.98-141.86-.41-34.26-21.94-52.54-55.23-55.07-15.21-1.16-30.08.04-43.36,9.43-12.45,8.81-18.27,20.84-19.21,35.5-.46,7.11-2.34,14.2-.29,21.5.68,2.41,1.74,6.45-2.83,7.58-1.78-9.55-3.57-19.09-5.35-28.64,3.65-.42,3.07-3.2,3.36-5.7,2.36-20.91,12.81-35.83,33.47-41.49,26.27-7.2,51.79-5.91,75.39,9.72,6.34,4.2,10.05,10.37,14.32,16.2,1.28,1.75,1.71,4.29,4.55,4.41,0,45.51,0,91.02,0,136.54-3.03.45-3.09,2.69-3.11,5.04-.12,17.04-.05,34.05-1.46,51.1-1.1,13.36.1,26.9-.28,40.34-1.13,39.76,2.39,79.45,1.79,119.19-.04,2.59-1.07,5.91,3.06,6.72.1,6.99.21,13.98.29,20.97.34,31.84-1.82,63.81,4.73,95.35-6.21,1.79-5.79,5.59-3.06,10.09,0,1.12,0,2.25-.01,3.37-4.25.26-3.24,4.01-3.99,6.37-4.66,14.71-12.66,27.13-26.69,34.05-19.19,9.47-39.49,11.04-60.22,5.33-21.18-5.83-35.52-18.18-38.82-40.95-.43-2.95-1.9-4.55-4.86-4.77,1.71-6.74,3.43-13.48,5.14-20.22Z"/>
      <path class="cls-11" d="M214.02,665.97c-2.57-27.21,11.93-46.14,31.06-62.34,7.38-6.26,15.3-5.1,23.02.61,8.62,6.38,15.23,14.67,22.63,22.25,11.28,11.56,24.09,21.62,36.15,32.44,8.07,7.24,17.61,13.05,23.32,22.62,3.02,5.06,8.73,9.9,5.71,16.51-3.58,7.84-10.29,12.33-19.14,13.08-2.63.22-5.95-.88-6.51,3.35-18.2-4.55-35.01-12.4-51.3-21.51,4.75-.47,9.34-.11,14.13.79,8.68,1.63,17.55,2.75,26.18-1.11,6.68-2.99,9.38-8.07,6.81-14.83-1.18-3.1-3.06-5.97-4.91-8.76-12.39-18.65-29.96-32.47-45.26-48.41-14.56-15.17-24.43-14.76-38.61.65-13.42,14.58-15.41,27.98-6.84,45.55.46.95.32,2.2.46,3.3-5.62-1.4-11.25-2.8-16.87-4.2Z"/>
      <path class="cls-3" d="M188.8,635.31c7.64-2.49,11.94-9.11,16.74-14.63,12.6-14.49,23.63-30.25,34.51-46.08,1.88-2.74,4.09-5.26,6.26-7.8,10.86-12.68,15.25-7.74,22.75,2.11,8.08,10.61,14.46,22.55,22.86,32.87,5.9,7.26,10.87,16.49,21.65,18.32,4.05,6.69,8.11,13.37,12.16,20.06-10.19-.66-15.67-8.91-22.61-14.52-13.35-10.76-22.43-25.6-34.49-37.64-8.93-8.92-18.98-9.18-26.83.36-15.4,18.73-31.13,37.28-43.92,57.94-5.38,8.68-10.09,18.35-5.22,29.26-3.61,6.98-9.78,3.67-14.89,3.26-2.42-.19-1.08-3.45-.62-5.04,3.76-12.86,7.74-25.66,11.65-38.47Z"/>
      <path class="cls-6" d="M230.9,670.17c-.14-1.11,0-2.35-.46-3.3-8.56-17.57-6.58-30.97,6.84-45.55,14.18-15.41,24.05-15.82,38.61-.65,15.3,15.94,32.88,29.76,45.26,48.41,1.85,2.79,3.74,5.66,4.91,8.76,2.57,6.75-.13,11.84-6.81,14.83-8.63,3.86-17.5,2.74-26.18,1.11-4.78-.9-9.37-1.26-14.13-.79-15.91-7.84-31.41-16.54-48.06-22.82ZM287.22,680.81c1.68,0,3.36.01,5.05,0,13.26-.12,17.04-6.34,11.23-18.17-5.88-11.97-14.73-21.94-23.86-31.09-13.92-13.95-25.31-20.64-39.7-2.87-8.16,10.07-8.02,25.14.84,34.26,12.75,13.13,29.22,16.45,46.45,17.87Z"/>
      <path class="cls-5" d="M233.99,478.53c2.68,1.12,3.68,3.22,3.6,6.01-.65,23.05,2.42,46.33-4.89,68.95-5.9,18.27-15.66,34.32-27.52,49.21-1.94,2.44-4.88,3.67-8.08,3.96.17-8.62,6.28-16.08,4.88-25.01,3.35-6.31,5.8-12.86,5.14-20.19,4.57-.41,3.54-4.57,4.31-7.1,7.66-25.23,15.06-50.54,22.54-75.83Z"/>
      <path class="cls-1" d="M45.74,529.16c2.96.22,4.43,1.82,4.86,4.77,3.3,22.77,17.64,35.12,38.82,40.95,20.74,5.71,41.03,4.14,60.22-5.33,14.02-6.92,22.02-19.33,26.69-34.05.75-2.36-.26-6.1,3.99-6.37,3.5,2.88.1,5.62-.25,8.38-.83,6.63-7.74,11.18-6.48,18.58h0c-3.22.16-4.9,1.83-5.04,5.06-1.13,1.13-2.25,2.25-3.38,3.38-7.46,3.15-13.21,9.22-20.83,12.19-2.3.89-6,.66-6.13,4.67-20.77,0-41.55.01-62.32.02-.05-3.22-2.74-3.93-4.91-5.01-9.75-4.83-17.07-11.71-22.31-21.61-2.43-4.59-2.22-11.04-7.87-13.83,1.65-3.94,3.3-7.87,4.95-11.81Z"/>
      <path class="cls-11" d="M499.18,714.8c-3.69-1.87-7.55-3.48-11.04-5.66-4.9-3.07-8.14-7.37-7.99-13.58.07-2.78.14-5.64-3.07-7.01,8.32-5.74,15.79-12.46,22.83-19.69,2.78,1.72,1.99,4.09,1.47,6.65-2.55,12.63,4.72,21.36,17.9,22.24,5.04.33,10.6-2.19,15.08,2.2-10.98,6.72-22.68,11.72-35.18,14.85Z"/>
      <path class="cls-10" d="M165.17,564.54c1.13-1.13,2.25-2.25,3.37-3.38,3.21-.16,4.89-1.85,5.04-5.06,0,0,0,0,0,0,7.31-4.12,7.23-12.18,9.75-18.77,1-2.6.94-5.53,4.11-6.69,2,3.04,3.54,6.25,3.67,9.98-2.64.19-3.82,1.78-4.45,4.21-3.5,13.38-12.89,22.59-22.55,31.6-1.57,1.46-4.1,2.13-4,4.94-3.93,0-7.86,0-11.79,0,.07-4.23,3.43-5.34,6.46-6.41,5.22-1.84,8.93-4.96,10.39-10.44Z"/>
      <path class="cls-12" d="M31.46,555.75c2.22-3.28,4.45-6.56,6.67-9.84,4.23,12.99,10.86,24.23,22.72,31.79.92.59,1.06,2.42,1.56,3.67-4.49-.01-8.99-.03-13.48-.04-5.83-8.53-11.65-17.05-17.48-25.58Z"/>
      <path class="cls-10" d="M62.42,581.37c-.5-1.25-.64-3.08-1.56-3.67-11.87-7.57-18.49-18.81-22.72-31.79.89-1.65,1.78-3.3,2.67-4.94,5.66,2.79,5.44,9.24,7.87,13.83,5.24,9.9,12.57,16.77,22.31,21.61,2.18,1.08,4.86,1.79,4.91,5.01-4.49-.02-8.99-.03-13.48-.05Z"/>
      <path class="cls-8" d="M207.14,561.45c.66,7.34-1.79,13.88-5.14,20.19-4.97-.12-9.95-.23-14.92-.35,3.08-9.44,9.47-16.95,14.67-25.15,1.8,1.77,3.6,3.53,5.39,5.3Z"/>
      <path class="cls-12" d="M160.12,581.39c-.1-2.81,2.43-3.48,4-4.94,9.66-9,19.05-18.21,22.55-31.6.64-2.43,1.81-4.03,4.45-4.21.59.64,1.17,1.28,1.76,1.92-3.84,10.07-8.29,19.8-14.96,28.41-2.63,3.4-7.29,5.34-7.7,10.39-3.37,0-6.74.02-10.11.03Z"/>
      <path class="cls-8" d="M28.72,581.29c-8.09.14-16.18.31-24.28.37-1.5.01-3.58.75-4.16-1.54-.56-2.23,1.46-2.85,2.87-3.44,6.76-2.82,12.5-7.3,18.65-11.11.44,6.06,5.54,10.08,6.91,15.73Z"/>
      <path class="cls-9" d="M201.74,556.16c-5.2,8.2-11.58,15.71-14.67,25.15-3.37.01-6.74.03-10.11.04,5.8-10.16,13.88-18.92,18.47-29.85.2-.47,1.52-.47,2.31-.69,1.33,1.78,2.67,3.57,4,5.35Z"/>
      <path class="cls-13" d="M197.74,550.8c-.8.22-2.11.22-2.31.69-4.59,10.93-12.67,19.68-18.47,29.85-2.25,0-4.49.01-6.74.02.41-5.05,5.07-6.99,7.7-10.39,6.67-8.62,11.12-18.34,14.96-28.41,1.62,2.75,3.24,5.5,4.86,8.25Z"/>
      <path class="cls-14" d="M31.46,555.75c5.83,8.53,11.65,17.05,17.48,25.58-3.37,0-6.74-.01-10.1-.02-3.21-7.27-7.63-13.82-12.14-20.31,1.59-1.75,3.18-3.5,4.76-5.25Z"/>
      <path class="cls-9" d="M26.69,561c4.51,6.49,8.93,13.04,12.14,20.31-3.37,0-6.74-.01-10.11-.02-1.38-5.65-6.47-9.67-6.91-15.73,1.63-1.52,3.26-3.04,4.89-4.56Z"/>
      <path class="cls-11" d="M165.17,564.54c-1.45,5.48-5.17,8.6-10.39,10.44-3.04,1.07-6.39,2.18-6.46,6.41-3.37,0-6.74,0-10.11.01.13-4.01,3.83-3.78,6.13-4.67,7.63-2.97,13.37-9.04,20.83-12.19Z"/>
      <path class="cls-7" d="M530.7,616.77c0-3.37,0-6.74,0-10.11,5.25-1.88,3.91-5.06,1.68-8.43,0-2.81,0-5.61,0-8.42,2.77-2.79,1.9-4.37-1.67-5.06.22-28.92-11.6-52.99-30.78-73.61-30.39-32.66-68.26-53.27-110.78-65.19-19.37-5.43-39.59-6.33-59.78-6.24-10.02.04-20.01.44-30.14-1.14-14.82-2.3-24.32-10.34-30.85-23.07-10.22-19.93-14.94-41.22-17.57-63.38-1.92-16.15-.71-31.71,3.53-47.11,2.84-10.31,8.01-11.52,15.4-4.02,10.98,11.14,20.47,23.67,32.97,33.41,21.21,16.52,45.58,25.86,71.08,32.94,24.21,6.72,48.98,11.46,72.56,20.45,2.95,1.12,5.89,1.79,9.03,1.26,21.66,10.99,43.23,22.12,63.63,35.39.08,3.73,2.6,3.66,5.25,3.37,0,0-.07-.08-.07-.08-.1,6.75,6.31,8.31,10.14,10.94,5.84,4.02,9.28,12.43,18.29,11.27,1.69,2.24,3.37,4.49,5.06,6.73,3.01,7.1,8.07,12.15,15.16,15.17,1.6.64,2.72,1.77,3.37,3.37-.16,4.74,1.84,7.74,6.74,8.43,0,0,0,0,0,0-.72,4.11,2.1,6.9,4.18,9.64,12.91,17,19.63,36.4,22.75,57.23.34,2.24,1.02,3.67,3.39,3.91,0,1.12,0,2.24,0,3.37-3.73,8.66-1.42,17.99-3.14,27-5.95,31.09-18.58,57.59-46.02,75.53-7.85,5.13-16.14,5.89-24.83,5.18-4.96-.41-7.23-3.95-8.68-8.78-3.22-10.68-.04-20.97,1.01-31.38.3-3.02,1.85-5.95-.9-8.57ZM515.54,520.72c-.03,2.45-.05,4.9,3.37,5.06-.03,2.45-.05,4.9,3.37,5.06,2.79,2.82,4.33,6.26,5.05,10.11.43,8.22,2.13,15.94,8.42,21.91,0,1.12,0,2.25,0,3.37-1.67,1.17-1.51,2.71-1.16,4.48,1.89,9.3,2.76,18.67,2.98,28.2.3,12.9-2.64,25.57-1.92,38.5.85,15.08,9.65,24.4,26.48,15.94,9.51-4.78,17.25-11.93,23.26-20.25,27.69-38.32,28.29-89.24,3.38-129.5-17.99-29.08-43.06-51.25-70.56-70.74-42.43-30.07-90.86-46.29-140.5-59.52-1.5-.4-2.68-.57-3.68.78-23.49-5.8-45.86-14.3-65.84-28.19-11.22-7.8-21.9-16.37-33.06-24.24-7.64-5.39-11.9-3.75-15.35,4.92-2.52,6.34-3.5,13.34-3.14,19.66.75,13.28,2.63,26.67,7.05,39.35,6.04,17.32,13.14,34.06,31.8,41.93,9.95,4.2,20.5,5.33,31.07,5.46,20.13.23,40.11,1.59,59.73,6.22,40.55,9.58,75.63,29.7,107.33,56.23.77,7.1,4.7,11.03,11.79,11.8-.02,2.45-.04,4.9,3.37,5.05,1.6.64,2.73,1.77,3.36,3.37-.02,2.45-.05,4.9,3.37,5.06Z"/>
      <path class="cls-1" d="M353.14,9.85c19.97,4.38,38.05,12.88,54.49,24.98.12,3.66,2.55,4.08,5.43,3.85.53.39,1.07.78,1.6,1.17.48,4.34,1.78,7.74,7.26,6.3,0,0,.37.27.36.27-2.13,3.94,1.47,5.44,3.29,7.64,9.52,11.43,17.69,23.62,23.06,37.64,13.61,35.56,11.95,71.59,3.45,107.78-5.89,25.09-16.81,47.4-38.23,63-10.56,7.69-22.7,13.15-35.87,11.75-19.21-2.04-31.38-15.2-34.19-34.53-.37-2.56-.04-5.2-3.6-5.52,7.56-21.85,8.28-44.16,5.33-66.92-2.1-16.18-1.64-16.24-15.27-8.84-5.43-8.56-7.64-18.33-10.44-27.88,3.46-.93,6.87-2.15,10.38-2.73,5.6-.92,6.48-3.65,4.35-8.54-2.85-6.54-5.33-13.24-7.98-19.87,7.89,1.77,8.92,9.49,12.28,14.86,11.41,18.17,17.46,38.38,16.27,59.72-1.03,18.56-3.7,36.99-3.06,55.69.93,27.29,23.23,41.12,47.98,29.54,15.69-7.34,26.83-19.34,34.22-34.5,15.31-31.36,18.48-65.02,13.47-98.86-6.97-47.11-31.81-81.94-77.23-99.58-16.57-6.43-33.99-9.13-51.57-2.63-9.42,3.48-13.57,9.65-14.04,19.61-.39,8.46,2.34,15.98,5.65,23.41,1.49,3.34,3.52,6.45,2.41,10.35-7.71-8.43-15.42-16.85-23.13-25.28-.12-2.79.1-5.65-.42-8.37-2.3-12.22.44-18.94,10.3-25.75,7.66-5.3,16.27-6.87,25.28-7.56,9.39-.72,18.79,1.5,28.16-.23Z"/>
      <path class="cls-1" d="M377.41,360.63c-1.12,0-2.24,0-3.37,0-.73-1.36-1.98-1.65-3.37-1.68-31.77-5.7-57.67-22.26-80.85-43.82.15-2.89-.31-5.47-3.38-6.74-2.74-3.04-5.36-6.16-6.74-10.11-.05-2.19-1.18-3.31-3.36-3.38-.56-1.68-1.13-3.37-1.69-5.05-3.71-13.69-10.15-26.52-12.8-40.57-.46-2.44-.6-6.42-4.53-5.87-2.92.41-4.08,3.24-4.67,6.25-2.03,10.35-5.64,20.59-6.08,30.98-.37,8.62-5.34,17.34-.56,26.06-1.66,13.64-3.66,26.9-1.24,41.1,2.17,12.78,3.79,25.75,6.17,38.58,1.53,8.24,4.15,16.06,7.21,23.78,1.86,4.7,3.56,9.37,3.02,14.54-5.5-4.59-10.69-9.48-15.21-15.06,1.89-4.43.53-8.74-.55-13.03-4.01-15.98-7.18-32.27-7.55-48.62-.93-41.09-1.3-82.27,4.96-123.07,1.84-12.02,3.07-24.68,11.13-34.66,6.44-7.97,13.6-6.61,16.85,3.09,3.02,9.02,3.53,18.56,3.87,28.06.48,13.12-.53,26.21,1.48,39.38,4.39,28.75,18.72,51.12,41.61,68.3,16.92,12.71,36.6,18.97,57.05,23.05,4.79.96,9.73,3.43,14.57-.02,3.67.14,5.68,5.35,10.07,3.31,0,0,0,0,0,0-.69,1.95-.1,3.14,2.01,3.45,4.04-.72,5.75,2.57,8.14,4.71-1.28,3.15-5.42,1.06-6.93,3.78-1.12,0-2.24,0-3.36,0-.69-3.57-2.28-4.44-5.06-1.68-1.68,0-3.36,0-5.04,0-2.37-5.35-7.69-3.77-11.81-5.04Z"/>
      <path class="cls-5" d="M330.68,298.87c-1.37,3.83,1.93,5.46,3.75,7.67,7.5,9.1,16.95,16.03,26.18,23.19,1.1,1.89,2.19,3.77,3.29,5.66-2.3,2.54-5.1,1.81-7.78,1.02-43.53-12.94-67.9-44.03-69.71-89.32-.68-16.93.42-33.85.34-50.79-.09-17.05-4.36-31.84-15.48-44.67,11.36-7.52,23.41-13.56,36.65-17.04,4.42,7.69,6.68,16.17,8.64,24.69.78,3.41,1.83,5.73,5.57,5.98-19.71,21.69-25.4,47.33-20.08,75.48,1.67,8.86,1.73,18.88,9.7,25.58,2.95,12.8,9.04,23.78,18.93,32.55Z"/>
      <path class="cls-10" d="M602.89,192.12c-4.04,14.8-7.6,29.74-13.03,44.13-2.1-3.26-1.88-6.92-1.89-10.57-.02-7.53.42-15.04-1.69-22.48-3.96-14.01-14.64-23.01-27.28-22.93-10.63.07-16.06,7.43-20.49,15.14-12.1,21.03-15.08,44.11-12.6,67.86,1.05,10.09,4.27,19.92,13.71,25.78,8.46,5.25,21.87.19,29.64-10.46,5.32-7.3,8.47-16.05,15.13-22.44-4.52,15.73-9.03,31.46-13.55,47.19-3.82-.64-6.22,2.19-8.96,3.91-15.4,9.65-31.01,4.55-38.17-12.34-7.8-18.38-8.08-37.37-4.74-56.56,4.5-25.88,9.21-51.8,31.52-69.69.35-.28.3-1.04.44-1.58,5.36,1.1,10.81,1.88,16.06,3.37,6.42,1.82,12.6.83,18.85-.51.76.76,1.43,1.64,2.29,2.27,6.97,5.13,7.5,15.04,14.77,19.93Z"/>
      <path class="cls-5" d="M487.29,139.67c12.5,3.35,24.2,8.56,35.28,15.2-3.75,1.76-4.55,5.37-5.64,8.85-7.12,22.84-12.46,46.16-18.35,69.33-.82,3.25-.63,7.62-5.64,8.14-6.96-11.88-13.91-23.75-20.87-35.63,3.52-.29,4.27-2.67,4.89-5.7,2.62-12.76,4.94-25.55,6.95-38.44,1.13-7.22-.91-15.04,3.38-21.75Z"/>
      <path class="cls-11" d="M550.92,167.06c-.14.54-.1,1.3-.44,1.58-22.3,17.89-27.01,43.81-31.52,69.69-3.34,19.19-3.06,38.18,4.74,56.56,7.16,16.88,22.76,21.99,38.17,12.34,2.74-1.72,5.14-4.55,8.96-3.91-2.31,9.11-4.38,18.29-8.1,26.98-11.32,5.46-23.01,6.92-35.19,3.35-6.43-19.58-12.87-39.15-19.3-58.73,5.03-8.11,3.91-17.55,5.53-26.37,3.41-18.54,6.12-37.16,12.64-55.05,3.96-10.86,10.65-20.01,16.09-29.94,3.31-.06,5.76,1.98,8.42,3.5Z"/>
      <path class="cls-6" d="M584.38,256.14c-6.66,6.39-9.8,15.14-15.13,22.44-7.77,10.65-21.18,15.71-29.64,10.46-9.45-5.86-12.66-15.69-13.71-25.78-2.48-23.74.5-46.83,12.6-67.86,4.43-7.71,9.87-15.07,20.49-15.14,12.64-.08,23.33,8.92,27.28,22.93,2.1,7.44,1.66,14.95,1.69,22.48.01,3.65-.21,7.31,1.89,10.57-.85,6.9-3.26,13.36-5.47,19.88ZM581.31,224.89c.63-7.16-.46-14.1-3.2-20.57-3.27-7.7-8.53-13.93-17.26-15.46-8.67-1.52-14.18,3.58-18.52,10.33-12.25,19.03-14.41,39.96-10.7,61.63,1.21,7.08,4.35,14.39,12.27,16.72,8.72,2.56,15.76-.97,21.38-7.9,10.61-13.08,15.39-28.17,16.04-44.75Z"/>
      <path class="cls-10" d="M340.19,234.18c3.56.31,3.23,2.96,3.6,5.52,2.81,19.33,14.97,32.48,34.19,34.53,13.17,1.4,25.31-4.06,35.87-11.75,21.42-15.6,32.34-37.91,38.23-63,8.5-36.2,10.16-72.22-3.45-107.78-5.37-14.02-13.54-26.21-23.06-37.64-1.83-2.19-5.42-3.7-3.29-7.64,14.13,11.76,25.5,25.63,32.72,42.69-1.04,2.04-1.43,3.91-.59,6.35,6.85,19.96,8.92,40.31,7.56,61.54-1.46,22.79-5.46,44.75-13.39,66.06-1,2.69-2.4,5.08-.43,7.81-14.77,24.57-36.26,41.09-62.33,52.13-.66-4.14-3.95-3.37-6.53-3.19-17.2,1.15-33.48-11.08-38.91-29.06-.88-2.91-.45-6.95-4.69-8.03,1.5-2.84,3-5.68,4.5-8.52Z"/>
      <path class="cls-1" d="M527.54,333.65c12.17,3.57,23.87,2.11,35.19-3.35-3.55,17.56-9.71,34.39-14.24,51.67-.94,3.58-3.54,3.64-6.52,3.67-3.17.03-4.18-1.29-4.77-4.36-3.05-15.91-6.4-31.76-9.65-47.63Z"/>
      <path class="cls-3" d="M492.94,241.19c5.01-.52,4.81-4.89,5.64-8.14,5.88-23.17,11.22-46.49,18.35-69.33,1.08-3.47,1.89-7.09,5.64-8.85,3.38,1.46,6.75,2.92,10.13,4.39-12.49,25.07-19.47,51.87-25.15,79.13-1.49,7.12,0,15.16-5.64,21.2-2.98-6.13-5.97-12.27-8.95-18.4Z"/>
      <path class="cls-3" d="M487.29,139.67c-4.28,6.71-2.25,14.53-3.38,21.75-2.01,12.88-4.33,25.68-6.95,38.44-.62,3.03-1.37,5.41-4.89,5.7-3.34-2.32-3.71-7.75-8.72-8.33.95-8.61,4.89-16.62,5.06-25.38,2.67-10.66,2.71-21.33-.04-31.98.04-1.75.07-3.51.11-5.26,6.79-.25,12.9,2,18.8,5.06Z"/>
      <path class="cls-1" d="M501.89,259.59c5.65-6.04,4.16-14.08,5.64-21.2,5.69-27.26,12.67-54.06,25.15-79.13,3.27,1.43,6.54,2.87,9.81,4.3-5.44,9.93-12.13,19.08-16.09,29.94-6.52,17.89-9.23,36.51-12.64,55.05-1.62,8.82-.5,18.26-5.53,26.37-2.75-4.84-4.93-9.93-6.35-15.33Z"/>
      <path class="cls-6" d="M468.48,134.61c-.04,1.75-.07,3.51-.11,5.26.01,10.66.03,21.32.04,31.98-.17,8.76-4.11,16.77-5.06,25.38-2.8,12.23-8.69,23.07-15.2,33.62-1.97-2.73-.57-5.12.43-7.81,7.92-21.31,11.93-43.27,13.39-66.06,1.36-21.23-.71-41.58-7.56-61.54-.84-2.44-.45-4.31.59-6.35,8.04,14.12,11.26,29.67,13.48,45.51Z"/>
      <path class="cls-10" d="M353.14,9.85c-9.37,1.73-18.77-.49-28.16.23-9.01.69-17.62,2.26-25.28,7.56-9.85,6.82-12.59,13.53-10.3,25.75.51,2.72.3,5.57.42,8.37-3.95-3.14-7.89-6.28-11.84-9.42.24-22.18,8.43-32.11,30.45-37.05,2.46-.55,6.03.91,6.64-3.36,12.97,1.29,25.85,3.03,38.07,7.92Z"/>
      <path class="cls-8" d="M330.68,298.87c-9.89-8.77-15.98-19.75-18.93-32.55,3.73-2.68,7.47-5.37,11.2-8.05,3.22,12.81,9.6,23.49,20.78,30.98,2.17,1.46,3.44,3.6,3.62,6.28-5.38,1.98-10.99,2.83-16.67,3.34Z"/>
      <path class="cls-12" d="M335.69,242.7c4.25,1.08,3.82,5.13,4.69,8.03,5.42,17.98,21.71,30.21,38.91,29.06,2.58-.17,5.87-.95,6.53,3.19-5.59,2.29-10.83,5.46-16.85,6.64-.3-3.19-2.86-4.21-5.26-4.56-7.4-1.05-12.31-5.78-17.69-10.38-8.06-6.89-9.22-17.34-14.63-25.51,1.43-2.16,2.86-4.32,4.3-6.48Z"/>
      <path class="cls-1" d="M602.89,192.12c-7.28-4.89-7.8-14.79-14.77-19.93-.86-.63-1.53-1.51-2.29-2.27,3.87-3.15,8.01-5.88,10.86-10.29,3.98-6.16,10.26-1.69,16.96-3.51-3.83,12.83-7.3,24.41-10.76,35.99Z"/>
      <path class="cls-13" d="M331.4,249.18c5.41,8.17,6.57,18.63,14.63,25.51,5.38,4.59,10.28,9.32,17.69,10.38,2.4.34,4.96,1.37,5.26,4.56-3.37,1.08-6.75,2.16-10.12,3.24-.2-1.47-.86-2.54-2.24-3.27-12.6-6.6-21.84-16.21-26.5-29.85-.85-2.49-2.61-3.46-5.03-3.65,2.11-2.31,4.21-4.61,6.32-6.92Z"/>
      <path class="cls-9" d="M325.08,256.1c2.42.19,4.18,1.16,5.03,3.65,4.67,13.64,13.9,23.25,26.5,29.85,1.38.72,2.05,1.8,2.24,3.27-3.83.89-7.67,1.77-11.5,2.66-.18-2.68-1.44-4.83-3.62-6.28-11.18-7.49-17.56-18.16-20.78-30.98.36-1.06.7-2.15,2.12-2.17Z"/>
      <path class="cls-8" d="M363.91,335.39c-1.1-1.89-2.19-3.77-3.29-5.66,7.8.21,13.15,5.53,19.01,9.5,7.06,4.79,14.42,9.33,19.83,16.2-4.39,2.04-6.39-3.17-10.07-3.31-8.07-6.22-15.95-12.72-25.47-16.73Z"/>
      <path class="cls-6" d="M552.6,449.94c-9.01,1.15-12.46-7.25-18.29-11.27-3.82-2.63-10.23-4.18-10.14-10.94,10.83,4.86,18.74,13.88,28.61,20.1-.06.7-.12,1.41-.18,2.11Z"/>
      <path class="cls-11" d="M402.68,367.36c1.51-2.72,5.65-.63,6.93-3.78,2.85,1.56,5.7,3.11,8.55,4.67-5.48,5.3-10.4.69-15.48-.89Z"/>
      <path class="cls-10" d="M552.6,449.94c.06-.7.12-1.41.18-2.11,4.1,2.01,7.4,4.99,10.26,8.5,0,0-.48.51-.48.5-1.63-.05-3.27-.11-4.9-.16-1.69-2.24-3.37-4.49-5.06-6.73Z"/>
      <path class="cls-10" d="M421.91,46.14c-5.49,1.44-6.78-1.96-7.26-6.3,2.82,1.63,5.56,3.37,7.26,6.3Z"/>
      <path class="cls-10" d="M413.05,38.68c-2.88.22-5.3-.19-5.43-3.85,1.81,1.28,3.62,2.57,5.43,3.85Z"/>
      <path class="cls-6" d="M524.24,427.82c-2.65.28-5.17.36-5.25-3.37,2.15.49,4.02,1.44,5.25,3.37Z"/>
      <path class="cls-8" d="M401.47,358.87c-2.12-.3-2.7-1.5-2.01-3.45,2.35.17,1.79,2.04,2.01,3.45Z"/>
      <path class="cls-6" d="M613.24,554.42c-2.37-.24-3.05-1.67-3.39-3.91-3.12-20.84-9.84-40.24-22.75-57.23-2.08-2.74-4.9-5.52-4.18-9.64,8.37,8.04,14.4,17.76,19.01,28.22,5.96,13.54,11.29,27.38,11.3,42.56Z"/>
      <path class="cls-6" d="M557.66,456.68c1.63.05,3.27.1,4.9.16,1.06,6.62,9.48,8.2,10.26,15.01-7.09-3.01-12.15-8.07-15.16-15.17Z"/>
      <path class="cls-6" d="M582.93,483.64c-4.9-.68-6.9-3.69-6.74-8.43,3.13,2.1,6.32,4.15,6.74,8.43Z"/>
      <path class="cls-5" d="M165.17,274.3c0,22.3-.85,38.36.19,54.3,1.68,25.77.43,51.58,1.72,77.3,1.79,35.52,3.43,71.02,3.11,106.58-.34,38.02-29.64,58.57-65.75,54.33-31.69-3.72-46.5-27.27-45.28-55.18,1.12-25.65,3.22-51.25,4.85-76.87.16-2.52.08-5.05.08-7.58,0-95.49.35-190.98-.23-286.46-.15-24.83-3.55-49.62-3.22-74.56.36-27.79,13.53-44.9,40.78-48.8,17.16-2.46,34,.08,48.39,11.69,12.5,10.08,18.04,23.71,18.47,38.82.83,29.47,1.26,59.01,0,88.45-1.77,41.42-3.41,82.81-3.12,117.99ZM153.62,111.29c-.63-19.12-1.44-35.75-6.96-51.91-5.5-16.08-27.36-25.92-41.25-22.72-17.54,4.05-27.11,18.01-27.64,36.3-.93,32.17,2.34,64.29,2.99,96.43,1.5,73.77-2.7,147.52-1.55,221.3.31,19.93.06,39.87.03,59.8,0,3.35-.73,6.74-.78,9.98-.32,19.19-4.97,38.3-.84,57.6,3.65,17.07,14.11,27.07,33.29,30.93,11.24,2.26,28.35-6.12,35.85-17.47,5.92-8.96,8.13-19,8.23-29.47.27-27.42-2.27-54.75-3.09-82.12-1.64-54.93,1.48-109.93-1.74-164.88-.78-13.35.56-26.81,1.16-40.22,1.58-35.26-1.22-70.64,2.29-103.55Z"/>
      <path class="cls-1" d="M308,460.24c-4.41-1.79-8.14-4.61-11.65-7.76.34-4.47,3.6-4.25,6.76-4.23,10.63.08,21.06-.37,31.61-2.96,12.48-3.06,25.07,1.49,37.31,3.52,45.77,7.61,84.95,29.13,118.12,61.13,19.28,18.59,30.61,41.5,32.4,68.95.72,10.98-.62,21.52-1.93,32.22-.28,2.25-.95,3.75-3.38,3.98-1.78-6.59-3.56-13.17-5.34-19.76,2.6-3.44,3.99-7.1,3.69-11.62-1.66-25.04-9.91-47.11-27.18-65.84-20.09-21.79-44.32-37.39-70.99-49.52-25.6-11.64-52.59-17-80.6-14.73-9.68.78-20.19.33-28.83,6.62Z"/>
      <path class="cls-11" d="M246.02,306.7c-4.78-8.72.2-17.44.56-26.06.44-10.39,4.05-20.63,6.08-30.98.59-3.01,1.74-5.84,4.67-6.25,3.92-.55,4.07,3.43,4.53,5.87,2.65,14.05,9.1,26.87,12.8,40.57-5.98-1.5-5.33-8.05-8.78-11.57-2.81-2.87-4.03-8.69-8.81-7.71-4.28.88-4.88,6.05-6.28,10.12-2.9,8.49-1.67,17.64-4.78,26.01Z"/>
      <path class="cls-11" d="M377.41,360.63c4.11,1.26,9.44-.31,11.81,5.04-4.12-1.25-9.44.32-11.81-5.04Z"/>
      <path class="cls-6" d="M532.38,598.23c2.24,3.37,3.58,6.55-1.68,8.43.4-2.84-1.12-6.07,1.68-8.43Z"/>
      <path class="cls-11" d="M286.45,308.39c3.07,1.27,3.53,3.85,3.38,6.74-3.07-1.27-3.53-3.85-3.38-6.74Z"/>
      <path class="cls-6" d="M530.71,584.75c3.58.69,4.44,2.27,1.67,5.06-1.97-1.22-1.62-3.21-1.67-5.06Z"/>
      <path class="cls-11" d="M394.26,365.68c2.79-2.75,4.37-1.88,5.06,1.68-1.86-.05-3.85.3-5.06-1.68Z"/>
      <path class="cls-11" d="M276.35,294.9c2.19.06,3.31,1.19,3.36,3.38-2.19-.06-3.31-1.18-3.36-3.38Z"/>
      <path class="cls-11" d="M370.67,358.95c1.39.03,2.64.32,3.37,1.68-2.67,2.56-3.03.46-3.37-1.68Z"/>
      <path class="cls-8" d="M293.18,576.53c9.14-3.11,15.99-9.65,23.26-15.55,6.48,5.32,9.32,12.81,12.12,20.33-10.57.13-21.13.26-31.7.39-2.38-.9-3.29-2.85-3.68-5.17Z"/>
      <path class="cls-1" d="M180.35,303.17c-2.99,2.4-1.6,5.74-1.62,8.63-.2,29.19-.25,58.38-.34,87.57-4.13-.81-3.1-4.14-3.06-6.72.6-39.75-2.91-79.43-1.79-119.19.38-13.44-.82-26.98.28-40.34,1.41-17.04,1.34-34.06,1.46-51.1.02-2.35.08-4.59,3.11-5.04.09,33.36.14,66.73.35,100.09.02,3.17-1.42,6.77,1.61,9.5,0,5.54,0,11.07,0,16.61Z"/>
      <path class="cls-11" d="M183.77,522.25c3.01,2.02,3.16,5.29,3.69,8.4-3.17,1.16-3.11,4.09-4.11,6.69-2.53,6.59-2.44,14.65-9.75,18.77-1.25-7.4,5.65-11.95,6.48-18.58.35-2.76,3.74-5.5.25-8.38,0-1.12,0-2.25.01-3.37,1.67-.66,2.8-1.85,3.43-3.53Z"/>
      <path class="cls-1" d="M183.77,522.25c-.62,1.68-1.76,2.86-3.43,3.53-2.73-4.5-3.16-8.3,3.06-10.09.12,2.19.25,4.37.37,6.56Z"/>
      <path class="cls-7" d="M287.22,680.81c-17.23-1.42-33.7-4.74-46.45-17.87-8.86-9.12-8.99-24.19-.84-34.26,14.39-17.77,25.77-11.08,39.7,2.87,9.13,9.15,17.98,19.12,23.86,31.09,5.82,11.84,2.03,18.05-11.23,18.17-1.68.02-3.36,0-5.05,0ZM258.68,631.93c-7.2-.49-9.89,4.11-10.86,10.12-1.03,6.33,1.49,11.47,6.64,15.12,6.45,4.57,13.22,8.65,21.61,5.94,3.93-1.27,5.34-4.66,5.29-8.62-.1-8.86-13.89-22.54-22.68-22.55Z"/>
      <path class="cls-11" d="M173.59,556.11c-.15,3.21-1.83,4.9-5.04,5.06.14-3.23,1.83-4.9,5.04-5.06Z"/>
      <path class="cls-13" d="M493.64,495.44c-31.7-26.53-66.78-46.65-107.33-56.23-19.62-4.63-39.6-5.99-59.73-6.22-10.57-.12-21.12-1.26-31.07-5.46-18.66-7.87-25.77-24.61-31.8-41.93-4.42-12.68-6.3-26.07-7.05-39.35-.36-6.32.62-13.32,3.14-19.66,3.45-8.67,7.71-10.3,15.35-4.92,11.17,7.87,21.85,16.44,33.06,24.24,19.98,13.89,42.36,22.39,65.84,28.19,2.55,2.46,5.99,2.84,9.15,3.76,23.61,6.87,46.86,14.64,69.51,24.39,45.81,19.72,86.81,46.04,119.1,84.64,26.68,31.88,36.56,68.09,26.02,108.74-5.25,20.27-14.9,38.16-34.9,47.93-10.65,5.2-18.55.28-20.57-11.25-2.25-12.83-.92-25.69-1.64-38.5-.53-9.35-.75-18.86-4.96-27.6,0-1.12,0-2.25,0-3.37-2.48-7.43-3.47-15.43-8.42-21.91-.72-3.85-2.26-7.3-5.05-10.11,0-2.43-1.13-4.11-3.37-5.06,0-2.43-1.13-4.11-3.37-5.06,0-2.43-1.13-4.11-3.37-5.06-.64-1.61-1.76-2.73-3.36-3.37-.01-2.43-1.13-4.11-3.37-5.05-3.25-4.61-7.18-8.54-11.79-11.8ZM594.85,565.24c.71-18.72-4.28-35.86-13.13-52.18-17.62-32.53-45.34-55-75.2-75.01-36.35-24.35-76.85-39.97-118.08-53.84-18.82-6.33-37.74-12.33-55.93-20.55-19.55-8.83-36.2-22.28-54.78-32.58-8.13-4.51-12.42-1.57-14.97,7.49-3.52,12.52-.74,24.61,2.17,36.37,4.35,17.53,11.03,34.32,27.43,44.62,14.35,9.01,30.87,8.65,46.9,10.11,13.31,1.22,26.67,1.86,39.87,4.24,39.79,7.17,74.38,25.73,106.32,49.47,30.51,22.68,50.97,52.32,57.53,90.46,2.31,13.44,4.19,26.96,6.39,40.42,1,6.13,3.89,11.78,9.79,13.69,5.34,1.73,9.98-1.72,14.04-5.62,16.31-15.67,21.35-35.47,21.63-57.11Z"/>
      <path class="cls-12" d="M535.76,566.22c4.22,8.73,4.44,18.24,4.96,27.6.72,12.82-.6,25.67,1.64,38.5,2.02,11.53,9.92,16.46,20.57,11.25,20-9.77,29.64-27.66,34.9-47.93,10.53-40.65.65-76.86-26.02-108.74-32.3-38.6-73.29-64.91-119.1-84.64-22.65-9.75-45.89-17.52-69.51-24.39-3.16-.92-6.6-1.3-9.15-3.76,1-1.35,2.17-1.18,3.68-.78,49.64,13.23,98.08,29.45,140.5,59.52,27.5,19.49,52.57,41.66,70.56,70.74,24.91,40.26,24.31,91.17-3.38,129.5-6.01,8.32-13.75,15.47-23.26,20.25-16.83,8.46-25.63-.86-26.48-15.94-.73-12.93,2.21-25.59,1.92-38.5-.22-9.53-1.09-18.9-2.98-28.2-.36-1.77-.51-3.32,1.16-4.48Z"/>
      <path class="cls-12" d="M527.34,540.94c4.94,6.48,5.93,14.48,8.42,21.91-6.29-5.96-7.99-13.69-8.42-21.91Z"/>
      <path class="cls-12" d="M493.64,495.44c4.61,3.25,8.54,7.19,11.79,11.8-7.1-.77-11.03-4.7-11.79-11.8Z"/>
      <path class="cls-12" d="M518.91,525.77c2.24.94,3.36,2.63,3.37,5.06-3.41-.16-3.4-2.6-3.37-5.06Z"/>
      <path class="cls-12" d="M515.54,520.72c2.24.94,3.36,2.63,3.37,5.06-3.42-.16-3.4-2.6-3.37-5.06Z"/>
      <path class="cls-12" d="M512.17,515.66c2.24.94,3.36,2.63,3.37,5.06-3.42-.15-3.4-2.6-3.37-5.06Z"/>
      <path class="cls-12" d="M505.44,507.24c2.24.94,3.36,2.62,3.37,5.05-3.42-.15-3.4-2.6-3.37-5.05Z"/>
      <path class="cls-3" d="M326.57,99.41c-4.54-7.46-9.08-14.92-13.62-22.38,1.11-3.9-.92-7.02-2.41-10.35-3.31-7.43-6.05-14.95-5.65-23.41.46-9.96,4.62-16.13,14.04-19.61,17.58-6.5,35-3.8,51.57,2.63,45.42,17.63,70.27,52.47,77.23,99.58,5,33.84,1.83,67.51-13.47,98.86-7.4,15.15-18.53,27.16-34.22,34.5-24.75,11.58-47.05-2.25-47.98-29.54-.64-18.7,2.03-37.14,3.06-55.69,1.19-21.34-4.86-41.55-16.27-59.72-3.37-5.37-4.4-13.09-12.28-14.86ZM358.83,170.19c.54,13.01-1.37,25.13-2.93,37.31-1.43,11.19-.73,22.4,3.68,33.02,5.32,12.79,17.97,19.05,31.2,15.96,21.03-4.91,33.83-19.63,41.86-37.98,12.12-27.67,14.35-57,10.65-86.99-3.98-32.26-15.66-60.5-40.84-81.91-18.95-16.11-40.79-25.82-66.06-24.07-14.91,1.04-27.2,7.48-24.61,27.5.28,2.2.9,4.37,1.57,6.49,4.94,15.66,13.43,29.65,22.66,42.88,14.48,20.77,24.77,42.44,22.82,67.78Z"/>
      <path class="cls-3" d="M330.25,158.42c-2.71,2.28-5.41,4.56-8.12,6.84-3.74-.25-4.79-2.56-5.57-5.98-1.96-8.52-4.22-17-8.64-24.69,3.59-2.43,7.82-2.99,11.88-4.06,2.8,9.55,5.02,19.32,10.44,27.88Z"/>
      <path class="cls-3" d="M245.97,409.64c-5.29-4.39-9.43-9.78-13.41-15.33.96-2.02,1.52-3.91,1.11-6.37-3.84-23.35-6.02-46.82-6.29-70.53-.3-26.55.8-53.04,1.9-79.54.3-7.17,2.18-14.27,2.69-21.45.91-12.78,6.2-24.89,5.59-37.87,9.56-11.08,20.96-19.84,33.71-26.92,11.13,12.83,15.4,27.62,15.48,44.67.09,16.94-1.02,33.85-.34,50.79,1.81,45.29,26.18,76.38,69.71,89.32,2.67.79,5.47,1.52,7.78-1.02,9.52,4,17.41,10.51,25.47,16.73-4.84,3.45-9.78.98-14.57.02-20.45-4.09-40.14-10.35-57.05-23.05-22.88-17.19-37.21-39.55-41.61-68.3-2.01-13.17-1-26.26-1.48-39.38-.34-9.49-.85-19.03-3.87-28.06-3.25-9.7-10.41-11.06-16.85-3.09-8.06,9.97-9.29,22.64-11.13,34.66-6.26,40.8-5.89,81.98-4.96,123.07.37,16.35,3.54,32.64,7.55,48.62,1.08,4.29,2.44,8.6.55,13.03Z"/>
      <path class="cls-12" d="M581.31,224.89c-.64,16.57-5.43,31.67-16.04,44.75-5.63,6.94-12.66,10.46-21.38,7.9-7.92-2.32-11.06-9.64-12.27-16.72-3.71-21.67-1.55-42.6,10.7-61.63,4.34-6.74,9.85-11.85,18.52-10.33,8.73,1.53,14,7.76,17.26,15.46,2.74,6.47,3.83,13.41,3.2,20.57ZM573.14,224.02c.7-2.8-1.22-7.65-2.66-12.38-1.58-5.2-5.07-9.62-10.65-10.9-5.72-1.31-10.84,1.13-13.9,5.86-9.93,15.33-13.54,31.8-6.55,49.37,3.5,8.8,11.68,10.27,18.7,3.98,10-8.96,14.01-20.51,15.07-35.93Z"/>
      <path class="cls-5" d="M468.42,171.85c-.01-10.66-.03-21.32-.04-31.98,2.74,10.66,2.7,21.32.04,31.98Z"/>
      <path class="cls-5" d="M237.57,178.55c.6,12.98-4.68,25.09-5.59,37.87-.51,7.18-2.39,14.27-2.69,21.45-1.11,26.5-2.21,52.99-1.9,79.54.27,23.71,2.45,47.18,6.29,70.53.4,2.46-.16,4.35-1.11,6.37-20.68-23.85-35.26-50.58-38.91-82.46-.35-3.1-.37-6.21-3.91-7.6,4.61-5.48,1.52-11.97,2.35-17.95,2.45-37.83,14.08-72.14,39.02-101.29,1.97-2.31,4.3-4.31,6.46-6.46Z"/>
      <path class="cls-13" d="M192.09,286.3c-.83,5.98,2.27,12.47-2.35,17.95-1.45-.3-2.91-.61-4.36-.92,0-5.56.02-11.11.03-16.67l6.68-.36Z"/>
      <path class="cls-10" d="M185.41,286.67c0,5.56-.02,11.11-.03,16.67-1.68-.06-3.36-.11-5.04-.17,0-5.54,0-11.07,0-16.61,1.69.04,3.38.07,5.08.11Z"/>
      <path class="cls-3" d="M153.62,111.29c-3.5,32.91-.71,68.29-2.29,103.55-.6,13.41-1.95,26.87-1.16,40.22,3.22,54.95.1,109.94,1.74,164.88.82,27.37,3.36,54.7,3.09,82.12-.1,10.47-2.31,20.52-8.23,29.47-7.5,11.35-24.61,19.74-35.85,17.47-19.19-3.86-29.64-13.86-33.29-30.93-4.13-19.3.52-38.41.84-57.6.05-3.24.78-6.63.78-9.98.03-19.93.28-39.87-.03-59.8-1.15-73.78,3.06-147.54,1.55-221.3-.66-32.15-3.93-64.26-2.99-96.43.53-18.29,10.09-32.25,27.64-36.3,13.89-3.2,35.76,6.64,41.25,22.72,5.52,16.17,6.33,32.8,6.96,51.91ZM86,304.16c0,46.88,0,93.76-.01,140.64,0,2.8-.11,5.61-.27,8.4-1.18,19.7-4.8,39.26-1.47,59.18,3.9,23.31,27.82,35.62,47.26,23.37,12.63-7.95,16.49-20.97,16.68-34.84.45-32.45-2.62-64.85-2.96-97.26-.85-81.96-1.01-163.94.27-245.89.29-18.72-.75-37.34-.82-56-.04-12.41-1.03-25.01-6.36-36.83-6.92-15.34-22.41-21.54-37.44-14.24-11.79,5.73-14.34,17-14.63,28.21-.39,15.06-.81,30.13,1.1,45.29,1.77,14.1-.96,28.48-1.14,42.7-.58,45.75-.22,91.51-.22,137.26Z"/>
      <path class="cls-3" d="M308,460.24c8.65-6.29,19.16-5.84,28.83-6.62,28.01-2.27,55,3.09,80.6,14.73,26.68,12.13,50.9,27.74,70.99,49.52,17.27,18.73,25.52,40.81,27.18,65.84.3,4.52-1.09,8.18-3.69,11.62-3.64-4.35-4.63-10.57-9.78-13.84-.61-1.67-1.22-3.34-1.83-5.01,2.16-3.92,1.92-7.87.91-12.16-5.96-25.51-21.27-44.83-41.36-60.3-26.6-20.49-55.77-36.16-89.86-39.86-16.39-1.78-32.88-2.06-48.6,4.56-4.9-2.14-9.49-4.77-13.4-8.47Z"/>
      <path class="cls-6" d="M406.05,581.35c-12.92,0-25.83,0-38.75,0,.02-4.13-3.44-4.37-6.12-5.79-13.61-7.22-21.71-22.62-18.35-34.46,3.97-14.01,18.24-23.67,33.68-21.95,15.9,1.77,29.31,9.12,39.67,21.22,11.07,12.92,8.5,27.13-5.9,36.32-1.86,1.19-4.22,1.83-4.24,4.66ZM384.76,574.63c3.09,0,5.91.2,8.7-.03,16.47-1.38,25.52-17.14,16.88-29.77-7.68-11.22-18.73-17.47-32.16-18.95-12.28-1.36-23.1,4.31-26.73,13.26-3.8,9.37-.88,18.97,8.76,27.49,7.05,6.24,15.48,8.73,24.56,8.01Z"/>
      <path class="cls-13" d="M333.5,532.52c1.64-6.73,3.27-13.46,4.91-20.18,8.85-.98,16.31-6.22,25.12-7.92,6-1.16,11.84,2.66,17.41-.77,15.77,7.26,31.37,14.84,45.34,25.34-.13,3.24,2.4,4.84,4.2,6.93,7.33,8.52,11.77,17.93,11.13,29.67-.32,5.97-4.61,10.15-5.23,15.74-3.37.01-6.74.02-10.11.03.22-2.92,1.68-5.28,3.36-7.54,7.16-9.66,4.82-23.03-1.17-31.21-11.82-16.13-27.31-27.06-47.42-29.8-12.83-1.75-25.43-1.49-36.32,8-4.18,3.64-4.99,10.28-11.21,11.73Z"/>
      <path class="cls-12" d="M333.5,532.52c6.22-1.45,7.04-8.09,11.21-11.73,10.89-9.48,23.49-9.75,36.32-8,20.11,2.75,35.6,13.67,47.42,29.8,5.99,8.18,8.33,21.55,1.17,31.21-1.68,2.26-3.14,4.63-3.36,7.54-2.81,0-5.62,0-8.42.01.06-1.77.86-3.14,1.98-4.5,10.58-12.78,11.19-21.91,1.54-35.47-11.25-15.8-27.35-23.79-46.21-25.56-15.25-1.43-29.89,7.17-34.69,18.75-5.34,12.9-1.55,26.13,10.19,37.93,2.81,2.83,8.05,3.56,8.24,8.84-2.81,0-5.62,0-8.42,0,.05-2.49-1.48-4.12-3.14-5.63-9.53-8.69-15.08-19.04-13.74-32.38.22-2.19.26-4.52-2.02-5.95.08-1.85.47-3.58,1.94-4.87Z"/>
      <path class="cls-8" d="M500.31,576.48c.61,1.67,1.22,3.34,1.83,5.01-15.18-.06-30.36-.12-45.54-.18,2.66-11.12,2.52-22.05-2.16-32.68-.71-1.6-1.32-3.14.59-4.37,16.65,8.55,32.07,18.84,45.29,32.22Z"/>
      <path class="cls-7" d="M358.89,581.36c-.18-5.28-5.42-6.02-8.24-8.84-11.74-11.8-15.53-25.03-10.19-37.93,4.8-11.58,19.44-20.19,34.69-18.75,18.86,1.77,34.96,9.76,46.21,25.56,9.65,13.55,9.04,22.68-1.54,35.47-1.12,1.36-1.93,2.73-1.98,4.5-3.93,0-7.86,0-11.79-.01.02-2.83,2.38-3.47,4.24-4.66,14.39-9.2,16.96-23.4,5.9-36.32-10.36-12.09-23.77-19.44-39.67-21.22-15.44-1.72-29.7,7.94-33.68,21.95-3.36,11.85,4.74,27.25,18.35,34.46,2.67,1.42,6.14,1.65,6.12,5.79-2.81,0-5.61,0-8.42,0Z"/>
      <path class="cls-4" d="M455.02,544.26c-1.9,1.23-1.29,2.77-.59,4.37,4.68,10.63,4.82,21.56,2.16,32.68-3.93,0-7.86,0-11.79-.01,5.63-13.99,5.09-27.41-3.77-40.01-1.21-1.72-1.27-3.59-1.3-5.52,1.69.57,3.38,1.14,5.07,1.71,3.41,2.26,6.81,4.53,10.22,6.79Z"/>
      <path class="cls-9" d="M439.73,535.76c.03,1.94.09,3.8,1.3,5.52,8.86,12.6,9.39,26.02,3.77,40.01-2.81,0-5.61.02-8.42.02.62-5.59,4.91-9.77,5.23-15.74.64-11.74-3.81-21.15-11.13-29.67-1.8-2.09-4.33-3.69-4.2-6.93,5,1.23,9.29,3.87,13.45,6.78Z"/>
      <path class="cls-9" d="M328.56,581.31c-2.8-7.52-5.63-15.01-12.12-20.33,3.3-4.37,6.6-8.74,9.91-13.11.39,6.71,3.17,12.63,5.58,18.79,2.28,5.84,8.99,8.27,10.11,14.66-4.49,0-8.99,0-13.48,0Z"/>
      <path class="cls-13" d="M342.03,581.32c-1.13-6.39-7.83-8.82-10.11-14.66-2.4-6.16-5.18-12.08-5.58-18.79,1.74-3.49,3.48-6.98,5.22-10.47,2.28,1.44,2.24,3.77,2.02,5.95-1.35,13.33,4.21,23.68,13.74,32.38,1.66,1.51,3.19,3.14,3.14,5.63-2.81-.01-5.62-.02-8.43-.04Z"/>
      <path class="cls-5" d="M455.02,544.26c-3.41-2.26-6.81-4.53-10.22-6.79.63-4.3-1.38-7.28-4.33-10.23-16.16-16.17-35.44-26.57-57.71-31.34-3.9-.83-8.25-1.77-12.03,1.07-1.17-.46-2.34-.91-3.51-1.37-9.31-5.38-18.21-11.52-28.41-15.25-5.8-3.88-11.61-7.76-17.41-11.64,15.72-6.62,32.21-6.34,48.6-4.56,34.09,3.71,63.26,19.37,89.86,39.86,20.09,15.47,35.4,34.79,41.36,60.3,1,4.29,1.24,8.24-.91,12.16-13.22-13.38-28.64-23.67-45.29-32.22Z"/>
      <path class="cls-8" d="M338.81,480.35c10.2,3.73,19.1,9.87,28.41,15.25-.77,1.58-1.94,2.91-3.7,3.03-8.7.59-16.55,4.13-24.62,6.91-.03-8.39-.06-16.79-.09-25.18Z"/>
      <path class="cls-4" d="M338.9,505.54c8.07-2.78,15.92-6.32,24.62-6.91,1.76-.12,2.93-1.45,3.7-3.03,1.17.46,2.34.91,3.51,1.37,3.4,2.23,6.8,4.45,10.2,6.67-5.57,3.43-11.41-.39-17.41.77-8.81,1.7-16.27,6.95-25.12,7.92.16-2.27.33-4.53.49-6.8Z"/>
      <path class="cls-12" d="M258.68,631.94c8.78,0,22.58,13.69,22.68,22.55.05,3.95-1.36,7.34-5.29,8.62-8.39,2.71-15.16-1.37-21.61-5.94-5.15-3.65-7.67-8.78-6.64-15.12.98-6.01,3.66-10.6,10.87-10.11Z"/>
      <path class="cls-14" d="M594.85,565.24c-.28,21.64-5.32,41.44-21.63,57.11-4.06,3.89-8.7,7.35-14.04,5.62-5.9-1.91-8.79-7.56-9.79-13.69-2.2-13.46-4.08-26.98-6.39-40.42-6.57-38.15-27.02-67.78-57.53-90.46-31.94-23.74-66.53-42.3-106.32-49.47-13.2-2.38-26.56-3.02-39.87-4.24-16.03-1.47-32.56-1.1-46.9-10.11-16.4-10.3-23.08-27.09-27.43-44.62-2.92-11.75-5.69-23.85-2.17-36.37,2.55-9.07,6.83-12,14.97-7.49,18.58,10.29,35.23,23.74,54.78,32.58,18.19,8.22,37.1,14.21,55.93,20.55,41.23,13.87,81.73,29.49,118.08,53.84,29.87,20.01,57.58,42.48,75.2,75.01,8.85,16.33,13.84,33.46,13.13,52.18ZM347.09,424.65c4.14,3.39,9.01.97,13.49,1.68,1.68,0,3.36,0,5.04,0,3.18,3.36,7.47,1.49,11.19,2.17,27.79,5.04,53.6,15.02,78.19,28.91,23.62,13.35,45.04,29.31,62.8,49.78,9.72,11.21,17.89,23.7,22.5,38.04,5.55,17.27,10.46,34.76,16.22,51.97,3.87,11.54,12.25,12.75,19.75,3.32,1.89-2.38,3.69-5.01,4.8-7.82,8.4-21.14,8.48-42.47.08-63.56-8.95-22.49-23.62-40.72-41.9-56.59-21.02-18.25-43.67-33.78-68.31-46.67-30.34-15.86-62.15-28.13-94.19-39.92-24.16-8.89-48.29-17.81-70.39-31.36-7.15-4.38-14.3-8.86-21.83-12.49-10.63-5.14-15.3-2.05-16.75,9.24-1.05,8.21-.02,16.11,2.05,23.86,6.44,24.07,19.25,42.33,45.61,46.94,8.2,1.43,16.46,3.24,24.91,2.49,2.24,0,4.48,0,6.73,0Z"/>
      <path class="cls-2" d="M358.83,170.19c1.95-25.34-8.34-47.01-22.82-67.78-9.22-13.23-17.72-27.22-22.66-42.88-.67-2.12-1.29-4.29-1.57-6.49-2.59-20.02,9.7-26.47,24.61-27.5,25.27-1.76,47.12,7.96,66.06,24.07,25.18,21.41,36.86,49.65,40.84,81.91,3.7,29.99,1.47,59.32-10.65,86.99-8.03,18.35-20.83,33.07-41.86,37.98-13.22,3.09-25.88-3.18-31.2-15.96-4.42-10.62-5.11-21.84-3.68-33.02,1.56-12.19,3.47-24.3,2.93-37.31ZM436.14,156.58c1.8-21.19-1.77-42.27-9.79-62.58-11.05-27.99-44.39-63.94-87.9-58.67-3.5.42-6.47,1.47-9.18,3.62-8.74,6.93-6.64,16.05-4.31,24.61,6.37,23.38,23.29,41.28,33.38,62.83,7.34,15.67,10.23,31.93,8.39,48.53-1.89,17-3.17,33.92-2.71,50.96.32,11.8,9.63,22.66,22.4,22.18,15.49-.59,24.96-9.54,32.82-20.47,15.06-20.94,18.53-45.15,16.89-71.01Z"/>
      <path class="cls-13" d="M573.14,224.02c-1.06,15.42-5.07,26.97-15.07,35.93-7.02,6.29-15.2,4.82-18.7-3.98-6.99-17.57-3.37-34.04,6.55-49.37,3.06-4.73,8.19-7.18,13.9-5.86,5.58,1.28,9.07,5.7,10.65,10.9,1.44,4.73,3.35,9.59,2.66,12.38Z"/>
      <path class="cls-1" d="M86,304.16c0-45.76-.36-91.52.22-137.26.18-14.22,2.91-28.6,1.14-42.7-1.9-15.16-1.48-30.24-1.1-45.29.29-11.21,2.84-22.48,14.63-28.21,15.03-7.3,30.52-1.1,37.44,14.24,5.33,11.82,6.31,24.42,6.36,36.83.07,18.66,1.11,37.28.82,56-1.28,81.95-1.12,163.93-.27,245.89.33,32.41,3.41,64.81,2.96,97.26-.19,13.87-4.05,26.89-16.68,34.84-19.44,12.24-43.36-.06-47.26-23.37-3.33-19.91.29-39.47,1.47-59.18.17-2.8.27-5.6.27-8.4.02-46.88.01-93.76.01-140.64ZM139.9,124.27c0-7.55.67-14.37-.14-21.01-1.61-13.16-1.16-26.84-9.49-38.51-9.07-12.69-26.08-12.49-34.05.87-3.97,6.66-5.33,14.18-5.08,21.77.93,28.79,2.53,57.56,3.21,86.35,1.1,46.83-2.42,93.62-1.73,140.47.63,42.96.37,85.93-.01,128.89-.12,13.07-2.03,26.11-2.96,39.18-.88,12.4-.21,24.7,5.35,36.09,8.1,16.6,28.13,18.47,39,3.74,5.5-7.46,7.56-16.09,7.59-25.25.11-34.44-3.08-68.81-3.1-103.19-.05-90.07-1.99-180.16,1.42-269.4Z"/>
      <path class="cls-11" d="M384.76,574.63c-9.09.73-17.51-1.77-24.56-8.01-9.63-8.52-12.56-18.12-8.76-27.49,3.63-8.96,14.45-14.62,26.73-13.26,13.43,1.48,24.49,7.74,32.16,18.95,8.64,12.63-.41,28.39-16.88,29.77-2.78.23-5.6.03-8.7.03ZM402.69,553.88c-.15-13.18-16.93-23.38-31.21-19.85-6.62,1.64-11.32,5.4-12.35,11.91-1.07,6.76,1.93,12.88,7.74,16.51,8.33,5.2,17.54,7.14,27.09,3.5,5.59-2.13,9.52-5.87,8.74-12.07Z"/>
      <path class="cls-2" d="M380.94,503.65c-3.4-2.22-6.8-4.45-10.2-6.67,3.78-2.85,8.13-1.91,12.03-1.07,22.27,4.77,41.54,15.17,57.71,31.34,2.95,2.95,4.97,5.93,4.33,10.23-1.69-.57-3.38-1.14-5.07-1.71-4.16-2.9-8.44-5.55-13.45-6.78-13.97-10.5-29.57-18.08-45.34-25.34Z"/>
      <path class="cls-4" d="M365.62,426.33c-1.68,0-3.36,0-5.04,0-3.79-6.2-8.69-3.52-13.49-1.68-2.24,0-4.48,0-6.73,0-.83-4.7-4.58-2.99-7.37-3.35-16.57-2.14-32.76-5.33-44.35-18.93-10.9-12.79-17.43-27.23-15.66-44.56.62-6.13,3.98-8.83,9.98-9,3.6-.1,6.49,1.5,9.46,3.06,30.26,15.91,61.58,29.45,93.07,42.7,48.46,20.39,97.17,40.37,138.68,73.95,21.35,17.27,40.42,36.32,50.29,62.56,6.58,17.5,8.58,35.34-1.2,52.65-3.45,6.1-7.61,6.08-11.06-.07-4.12-7.34-7.13-15.17-10.04-23.07-11.36-30.88-26.65-58.97-53.5-79.65-33.4-25.73-69.08-46.63-111.17-53.96-6.93-1.21-14.51-5.24-21.89-.63ZM391.14,419.61c2.4,0,3.24.06,4.08-.01,3.18-.27,7.52,1.21,8.56-3.19,1.01-4.28-3.88-4.7-6.13-6.86-.39-.37-.98-.53-1.48-.78-28.34-13.89-56.73-27.68-84.99-41.74-6.56-3.26-13.32-5.81-20.25-8-6.89-2.18-11.69,1.29-11.09,8.61.91,11.07,4.6,21.22,12.13,29.66,13.46,15.09,31.87,17.29,50.33,18.82,8.18.68,16.39,1.29,24.7,1.08,8.54-.22,17.12,1.63,24.15,2.4ZM565.98,540.12c-.78-2.42-1.85-6.18-3.21-9.82-3.98-10.68-10.51-19.65-18.76-27.44-1.99-1.88-4.22-3.11-6.78-1.74-1.81.97-1.37,2.89-.55,4.46,6.74,12.9,13.43,25.82,20.34,38.62,1.18,2.19,3.33,4.11,6.27,2.95,2.44-.96,2.85-3.24,2.69-7.02Z"/>
      <path class="cls-9" d="M365.62,426.33c7.38-4.61,14.96-.58,21.89.63,42.09,7.33,77.76,28.23,111.17,53.96,26.85,20.68,42.13,48.78,53.5,79.65,2.91,7.89,5.92,15.73,10.04,23.07,3.45,6.14,7.61,6.17,11.06.07,9.78-17.3,7.78-35.15,1.2-52.65-9.88-26.25-28.95-45.29-50.29-62.56-41.51-33.58-90.22-53.55-138.68-73.95-31.49-13.25-62.82-26.79-93.07-42.7-2.97-1.56-5.87-3.16-9.46-3.06-6,.17-9.36,2.87-9.98,9-1.76,17.33,4.76,31.77,15.66,44.56,11.59,13.6,27.78,16.79,44.35,18.93,2.79.36,6.55-1.35,7.37,3.35-8.46.74-16.72-1.06-24.91-2.5-26.37-4.61-39.17-22.87-45.61-46.94-2.07-7.75-3.1-15.65-2.05-23.86,1.44-11.29,6.11-14.38,16.75-9.24,7.53,3.64,14.68,8.11,21.83,12.49,22.1,13.55,46.23,22.47,70.39,31.36,32.04,11.79,63.85,24.05,94.19,39.92,24.64,12.88,47.29,28.41,68.31,46.67,18.28,15.87,32.95,34.1,41.9,56.59,8.39,21.09,8.31,42.42-.08,63.56-1.11,2.81-2.91,5.44-4.8,7.82-7.5,9.43-15.89,8.22-19.75-3.32-5.76-17.2-10.67-34.69-16.22-51.97-4.61-14.33-12.78-26.83-22.5-38.04-17.76-20.47-39.18-36.44-62.8-49.78-24.59-13.89-50.4-23.86-78.19-28.91-3.71-.67-8,1.2-11.19-2.17Z"/>
      <path class="cls-9" d="M347.09,424.65c4.79-1.84,9.69-4.51,13.49,1.68-4.48-.71-9.34,1.71-13.49-1.68Z"/>
      <path class="cls-5" d="M436.14,156.58c1.64,25.86-1.83,50.08-16.89,71.01-7.86,10.93-17.33,19.88-32.82,20.47-12.77.49-22.09-10.38-22.4-22.18-.46-17.04.82-33.97,2.71-50.96,1.84-16.59-1.05-32.85-8.39-48.53-10.09-21.55-27.01-39.46-33.38-62.83-2.33-8.56-4.43-17.69,4.31-24.61,2.71-2.15,5.68-3.2,9.18-3.62,43.52-5.27,76.85,30.68,87.9,58.67,8.02,20.3,11.59,41.39,9.79,62.58ZM375.74,134.77c4.31,3.76,12.67,2.15,13.46,10.68.91,9.69,1.92,19.4,3.61,28.97,1.91,10.82,2.15,21.97,5.82,33.99,2.55-16.98,5.54-32.31,6.96-47.78,1.16-12.69,2.5-24.21,17.78-27.2,3.14-.34,6.42-.34,8.7-3.34-3.31-3.2-7.31-3.66-10.89-5.05-9.84-1.71-15.14-7.45-17.43-17.29-1.06-4.55-2.16-9.78-6.1-13.34-.62-9.03-15.64-27.13-24.21-28.4-4.21-.62-9.26-1.94-12.57,2.22-3.47,4.36-2.74,9.67-.92,14.34,3.26,8.35,8.52,15.58,13.95,22.71,3.82,5.01,9.16,9.12,10.25,15.92-3.6,1.23-7.63,1.59-10.22,4.92-3.46.44-6.76,1.24-10.05,4.08,4.12,2.49,7.84,3.91,11.87,4.58Z"/>
      <path class="cls-11" d="M139.9,124.27c-3.41,89.24-1.46,179.33-1.42,269.4.02,34.38,3.21,68.75,3.1,103.19-.03,9.16-2.09,17.79-7.59,25.25-10.87,14.73-30.9,12.86-39-3.74-5.56-11.39-6.23-23.68-5.35-36.09.93-13.07,2.84-26.11,2.96-39.18.38-42.96.64-85.93.01-128.89-.68-46.85,2.83-93.64,1.73-140.47-.67-28.79-2.27-57.56-3.21-86.35-.25-7.59,1.11-15.11,5.08-21.77,7.97-13.36,24.98-13.56,34.05-.87,8.34,11.66,7.88,25.35,9.49,38.51.81,6.64.14,13.46.14,21.01ZM135.21,115.34c-1.82-12.25-2.31-25.44-7.16-37.77-2.86-7.26-7.87-12.8-16.46-11.68-7.87,1.03-10.17,7.66-12.08,14.35-5.95,20.87,1.11,41.85-.68,62.82-.79,9.29,2.26,18.84,2.16,28.26-.25,23.78.12,47.55-1.04,71.37-1.21,24.73-1.29,49.62-.67,74.48.79,31.13.26,62.29.12,93.44-.02,4.98-2.37,10.32-1.2,14.87,4.03,15.7-1.4,30.82-2.31,46.1-.86,14.51-1.91,28.41,4.98,41.57,5.79,11.07,17.62,12.56,26.63,4.06,4.36-4.12,5.68-9.42,7.35-14.79,4.53-14.56,1.73-29.68.49-43.88-1.26-14.35.04-28.76-2.08-43.01-1.23-8.26-2.06-16.58-1.86-25.03,1.13-47.07-1.52-94.16,1.54-141.23,1.2-18.38-.1-36.88-1.22-55.35-1.58-25.97.5-51.96,3.48-78.58Z"/>
      <path class="cls-1" d="M402.69,553.88c.78,6.2-3.15,9.94-8.74,12.07-9.55,3.64-18.77,1.7-27.09-3.5-5.8-3.63-8.81-9.75-7.74-16.51,1.03-6.5,5.73-10.27,12.35-11.91,14.28-3.53,31.06,6.67,31.21,19.85Z"/>
      <path class="cls-8" d="M391.14,419.61c-7.02-.77-15.61-2.62-24.15-2.4-8.31.21-16.51-.41-24.7-1.08-18.46-1.53-36.87-3.73-50.33-18.82-7.53-8.44-11.23-18.59-12.13-29.66-.6-7.31,4.21-10.78,11.09-8.61,6.93,2.19,13.69,4.74,20.25,8,28.26,14.05,56.65,27.85,84.99,41.74.5.25,1.09.41,1.48.78,2.25,2.16,7.14,2.58,6.13,6.86-1.04,4.39-5.37,2.92-8.56,3.19-.83.07-1.68.01-4.08.01Z"/>
      <path class="cls-8" d="M565.98,540.12c.16,3.78-.25,6.06-2.69,7.02-2.95,1.16-5.09-.76-6.27-2.95-6.91-12.81-13.6-25.73-20.34-38.62-.82-1.57-1.26-3.49.55-4.46,2.57-1.37,4.8-.14,6.78,1.74,8.24,7.79,14.77,16.76,18.76,27.44,1.36,3.65,2.43,7.41,3.21,9.82Z"/>
      <path class="cls-4" d="M423.36,133.43c-15.28,2.99-16.62,14.51-17.78,27.2-1.41,15.47-4.41,30.8-6.96,47.78-3.67-12.02-3.91-23.17-5.82-33.99-1.69-9.57-2.7-19.28-3.61-28.97-.8-8.53-9.15-6.92-13.46-10.68-.61-2.88-1.21-5.77-1.82-8.65,2.59-3.33,6.62-3.69,10.22-4.92,4.05.08,4.65-3.05,5.7-5.93,2.53-6.98,5.19-13.9,7.8-20.85,3.94,3.55,5.04,8.79,6.1,13.34,2.29,9.83,7.6,15.58,17.43,17.29.42,2.88-1.08,6.26,2.19,8.39ZM382.29,130.06c18.73,1.67,11.3,17.76,16.28,27.04,2.99-10.21-2.12-23.88,14.54-27.19-8.38-2.13-12.67-6.99-14.36-16.26-3.32,8.79-7.07,14.76-16.45,16.42Z"/>
      <path class="cls-2" d="M397.64,94.41c-2.61,6.95-5.28,13.87-7.8,20.85-1.04,2.89-1.65,6.02-5.7,5.93-1.09-6.8-6.44-10.91-10.25-15.92-5.43-7.12-10.69-14.36-13.95-22.71-1.82-4.66-2.55-9.97.92-14.34,3.31-4.17,8.36-2.85,12.57-2.22,8.57,1.27,23.59,19.37,24.21,28.4Z"/>
      <path class="cls-9" d="M423.36,133.43c-3.27-2.13-1.77-5.52-2.19-8.39,3.58,1.4,7.58,1.86,10.89,5.05-2.28,3-5.56,3-8.7,3.34Z"/>
      <path class="cls-9" d="M373.92,126.12c.61,2.89,1.21,5.77,1.82,8.65-4.03-.67-7.74-2.09-11.87-4.58,3.29-2.84,6.59-3.64,10.05-4.08Z"/>
      <path class="cls-6" d="M135.21,115.34c-2.99,26.62-5.06,52.61-3.48,78.58,1.12,18.47,2.42,36.97,1.22,55.35-3.07,47.08-.41,94.17-1.54,141.23-.2,8.45.63,16.77,1.86,25.03,2.11,14.25.82,28.66,2.08,43.01,1.25,14.2,4.04,29.33-.49,43.88-1.67,5.36-2.99,10.67-7.35,14.79-9.01,8.5-20.83,7.02-26.63-4.06-6.89-13.17-5.84-27.06-4.98-41.57.91-15.28,6.35-30.4,2.31-46.1-1.17-4.55,1.18-9.89,1.2-14.87.14-31.15.67-62.31-.12-93.44-.63-24.86-.55-49.75.67-74.48,1.17-23.82.79-47.59,1.04-71.37.1-9.42-2.95-18.97-2.16-28.26,1.78-20.97-5.27-41.96.68-62.82,1.91-6.7,4.21-13.32,12.08-14.35,8.59-1.12,13.61,4.42,16.46,11.68,4.85,12.33,5.34,25.52,7.16,37.77ZM101.18,486.68c.65,4.41.97,10.61,3.74,16.21,2.38,4.81,4.88,10.01,11.52,9.27,6.64-.75,9.86-5.14,11.78-11.43,3.85-12.65,3.2-25.63,1.12-38.04-4.78-28.52-3.87-57.32-6.16-85.94-1.18-14.8,1.27-29.63,1.34-44.41.12-26.31.31-52.61-1.1-78.97-2.31-43.11.97-86.3,1.35-129.46.01-1.4-.11-2.89.3-4.18,3.17-9.82-.82-19.29-1.36-28.92-.16-2.77-1.75-5.16-3.82-7.28-5.74-5.88-9.92-5.15-12.86,2.7-2.59,6.94-3.16,14.25-2.37,21.53,3.08,28.34,4.36,56.8,4.82,85.26.59,36.14-2.28,72.25-1.7,108.42.6,37.89.14,75.79.12,113.69,0,2.79-.17,5.6-.44,8.38-2.01,20.51-4.06,41.01-6.26,63.17Z"/>
      <path class="cls-3" d="M382.29,130.06c9.38-1.65,13.14-7.63,16.45-16.42,1.69,9.27,5.98,14.13,14.36,16.26-16.66,3.32-11.55,16.98-14.54,27.19-4.98-9.27,2.45-25.37-16.28-27.04Z"/>
      <path class="cls-12" d="M101.18,486.68c2.2-22.16,4.25-42.66,6.26-63.17.27-2.78.44-5.59.44-8.38.03-37.9.49-75.8-.12-113.69-.58-36.18,2.29-72.28,1.7-108.42-.46-28.46-1.74-56.92-4.82-85.26-.79-7.28-.22-14.59,2.37-21.53,2.94-7.85,7.12-8.58,12.86-2.7,2.07,2.12,3.66,4.51,3.82,7.28.54,9.63,4.53,19.1,1.36,28.92-.42,1.29-.29,2.78-.3,4.18-.38,43.16-3.66,86.35-1.35,129.46,1.41,26.36,1.23,52.66,1.1,78.97-.07,14.78-2.52,29.62-1.34,44.41,2.29,28.62,1.38,57.43,6.16,85.94,2.08,12.41,2.73,25.39-1.12,38.04-1.91,6.29-5.13,10.69-11.78,11.43-6.64.75-9.15-4.46-11.52-9.27-2.77-5.6-3.09-11.8-3.74-16.21Z"/>
    </g>
  </g>
</svg>